<svg width="629" height="718" viewBox="0 0 629 718" fill="none" xmlns="http://www.w3.org/2000/svg">
<path d="M316.005 0.41254C419.827 59.8984 523.772 119.187 627.89 178.327C628.228 178.522 628.509 178.791 628.704 179.107C628.899 179.423 629.001 179.776 629 180.128V537.733C629 538.097 628.926 538.443 628.787 538.734C628.648 539.025 628.449 539.25 628.211 539.386L315.659 717.646C315.284 717.864 314.868 717.986 314.452 717.999C314.037 718.012 313.636 717.916 313.291 717.72L1.18401 539.657C0.824133 539.447 0.525291 539.159 0.317479 538.821C0.109668 538.484 0.000185118 538.108 0 537.733V180.128C0.00011059 179.73 0.102726 179.341 0.29755 178.999C0.492374 178.657 0.772549 178.375 1.10999 178.179L312.897 0.41254C313.37 0.142194 313.906 0 314.451 0C314.996 0 315.531 0.142194 316.005 0.41254ZM536.574 195.369C462.895 153.295 389.289 111.147 315.561 69.1714C315.23 68.9836 314.848 68.8893 314.455 68.8979C314.061 68.9066 313.668 69.0179 313.316 69.2208L91.464 195.764C91.02 196.01 91.0282 196.265 91.4887 196.528L149.998 230.562C150.366 230.779 150.773 230.9 151.176 230.913C151.58 230.926 151.965 230.831 152.292 230.636L313.316 138.276C313.662 138.073 314.057 137.966 314.46 137.966C314.863 137.966 315.259 138.073 315.61 138.276L476.116 229.995C476.521 230.224 476.929 230.38 477.289 230.446C477.648 230.512 477.944 230.484 478.139 230.365L536.648 196.923C537.552 196.413 537.528 195.895 536.574 195.369ZM181.769 284.795L181.497 398.662C181.492 398.823 181.534 398.98 181.617 399.118C181.701 399.256 181.824 399.369 181.974 399.447C182.124 399.524 182.295 399.563 182.472 399.559C182.648 399.556 182.822 399.51 182.977 399.426L283.025 342.259C283.406 342.035 283.723 341.749 283.944 341.428C284.165 341.107 284.282 340.764 284.283 340.434V226.37C284.282 226.186 284.235 226.004 284.148 225.842C284.061 225.68 283.937 225.544 283.787 225.447C283.638 225.35 283.468 225.295 283.296 225.288C283.123 225.281 282.953 225.323 282.803 225.408L182.583 282.576C182.34 282.713 182.134 282.995 181.989 283.389C181.845 283.783 181.768 284.271 181.769 284.795ZM446.837 398.292C447.659 390.581 447.947 383.264 447.7 376.342C446.59 346.007 447.059 315.5 447.133 284.623C447.133 284.139 447.025 283.675 446.821 283.28C446.617 282.885 446.324 282.574 445.973 282.378L346.197 225.457C346.045 225.37 345.873 225.326 345.698 225.329C345.523 225.333 345.352 225.383 345.202 225.476C345.051 225.569 344.927 225.701 344.842 225.858C344.757 226.015 344.713 226.191 344.717 226.37V340.434C344.717 340.778 344.832 341.129 345.049 341.451C345.266 341.772 345.578 342.051 345.95 342.259L445.233 399.007C445.389 399.097 445.564 399.149 445.743 399.16C445.922 399.171 446.1 399.139 446.259 399.068C446.418 398.997 446.554 398.889 446.655 398.754C446.756 398.618 446.818 398.459 446.837 398.292ZM283.815 562.889L122.075 469.936C121.709 469.728 121.404 469.444 121.192 469.115C120.979 468.785 120.867 468.422 120.867 468.062V284.327C120.866 283.959 120.758 283.592 120.555 283.263C120.351 282.934 120.059 282.654 119.707 282.452L61.864 249.553C61.7185 249.472 61.5546 249.431 61.3882 249.435C61.2218 249.439 61.0586 249.486 60.9146 249.573C60.7705 249.66 60.6505 249.783 60.5662 249.931C60.4818 250.079 60.4361 250.246 60.4333 250.416V502.589C60.4333 502.949 60.545 503.314 60.7571 503.647C60.9692 503.981 61.2744 504.271 61.642 504.488L283.173 631.376C283.284 631.442 283.41 631.479 283.538 631.485C283.666 631.491 283.793 631.466 283.905 631.411C284.017 631.356 284.111 631.274 284.177 631.173C284.244 631.072 284.28 630.955 284.283 630.834V563.629C284.284 563.487 284.241 563.343 284.159 563.213C284.077 563.083 283.958 562.971 283.815 562.889ZM507.369 469.739L346.221 562.149C345.782 562.405 345.408 562.699 345.144 562.993C344.881 563.287 344.741 563.569 344.741 563.801L344.717 630.834C344.713 630.95 344.745 631.061 344.811 631.155C344.877 631.25 344.974 631.325 345.092 631.373C345.21 631.42 345.345 631.439 345.483 631.427C345.62 631.414 345.756 631.371 345.876 631.302L567.358 504.488C567.726 504.271 568.031 503.981 568.243 503.647C568.455 503.314 568.567 502.949 568.567 502.589V250.416C568.563 250.243 568.517 250.073 568.431 249.923C568.346 249.773 568.224 249.647 568.078 249.558C567.932 249.469 567.766 249.419 567.597 249.414C567.428 249.409 567.26 249.448 567.111 249.528L509.342 282.428C508.976 282.636 508.671 282.921 508.458 283.255C508.246 283.589 508.134 283.959 508.133 284.327V468.53C508.133 468.764 508.062 468.999 507.927 469.211C507.793 469.423 507.6 469.605 507.369 469.739ZM415.115 450.724L315.684 394.173C315.322 393.97 314.918 393.86 314.512 393.856C314.106 393.852 313.711 393.952 313.365 394.148L213.465 450.995C212.248 451.686 212.273 452.393 213.539 453.116L313.291 509.939C313.645 510.134 314.048 510.232 314.463 510.224C314.878 510.215 315.29 510.1 315.659 509.889L414.992 453.215C416.472 452.36 416.513 451.53 415.115 450.724Z" fill="#132A3A"/>
</svg>
